# xmcd
#
# Track frame offsets:
#  150
#  10710
#  24902
#  38130
#  48612
#  60140
#  71162
#  81202
#  96535
#  107147
#  121370
#  135065
#  150030
#  161990
#  172557
#  184582
#  195025
#  208517
#  217785
#  230642
#
# Disc length: 3227 seconds
#
# Revision: 0
# Processed by: cddbd v1.5.1PL0 Copyright (c) Steve Scherf et al.
# Submitted via: AltoMP3_Maker 3.0
#
DISCID=ee0c9914
DTITLE=Slim Whitman - The Best Of
DYEAR=1900
DGENRE=
TTITLE0=Rose Marie
TTITLE1=Indian Love Call
TTITLE2=I'll Take you Home Again Kathleen
TTITLE3=Have I Told You Lately That I Love You
TTITLE4=Fool Such As I
TTITLE5=Edelweiss
TTITLE6=The Twelfth Of Never
TTITLE7=Can't Halp Falling In Love
TTITLE8=Rhinestone Cowboy
TTITLE9=Red River Valey
TTITLE10=Tumbling Tmbleweeds
TTITLE11=Riders In The Sky
TTITLE12=Paper Rose
TTITLE13=Serenade
TTITLE14=I Love You Because
TTITLE15=It's All In The Game
TTITLE16=Unchained Melody
TTITLE17=Love Letters In The Sand
TTITLE18=Stranger On The Shore
TTITLE19=Happy Anniversary
EXTD=
EXTT0=
EXTT1=
EXTT2=
EXTT3=
EXTT4=
EXTT5=
EXTT6=
EXTT7=
EXTT8=
EXTT9=
EXTT10=
EXTT11=
EXTT12=
EXTT13=
EXTT14=
EXTT15=
EXTT16=
EXTT17=
EXTT18=
EXTT19=
PLAYORDER=
